<svg id="Layer_1" data-name="Layer 1" xmlns="http://www.w3.org/2000/svg" viewBox="0 0 500 500"><defs><style>.cls-1{fill:#fff;}</style></defs><title>SpacedbWhite</title><path class="cls-1" d="M314.1,213.94a33.54,33.54,0,0,0-24.92,10.71,35.8,35.8,0,0,0-10.42,25.91,36.74,36.74,0,0,0,4.75,18.27,33.69,33.69,0,0,0,12.84,13.08,36.5,36.5,0,0,0,35.51,0,33.69,33.69,0,0,0,12.84-13.08,36.78,36.78,0,0,0,4.75-18.27A35.73,35.73,0,0,0,339,224.66Q328.52,213.94,314.1,213.94Z"/><path class="cls-1" d="M228.24,213.94a33.54,33.54,0,0,0-24.92,10.71,35.81,35.81,0,0,0-10.42,25.91,36.74,36.74,0,0,0,4.75,18.27,33.7,33.7,0,0,0,12.84,13.08,36.5,36.5,0,0,0,35.51,0,33.68,33.68,0,0,0,12.83-13.08,36.74,36.74,0,0,0,4.75-18.27,35.72,35.72,0,0,0-10.46-25.91Q242.66,213.94,228.24,213.94Z"/><path class="cls-1" d="M249,99C165.72,99,98,166.78,98,250.07S165.72,401.12,249,401.12s151.05-67.76,151.05-151.05S332.3,99,249,99Zm-81.5,119.62q-5.4,4.78-8.22,14.83-2.16,7.72-2.16,31.22v30.57H145.26V204.89h11.88v13.2a41.71,41.71,0,0,1,11.21-11.67,22.12,22.12,0,0,1,12.29-3.86,21.18,21.18,0,0,1,10.3,3.08l-6.06,9.8a16.19,16.19,0,0,0-6.14-1.58Q172.91,213.86,167.51,218.63ZM348,283.42q-13.19,14.16-33.91,14.16t-34-14.16a50,50,0,0,1-9-13.25,50,50,0,0,1-9,13.25q-13.19,14.16-33.9,14.16t-34-14.16a48.41,48.41,0,0,1-.71-65.66q13.73-15.2,34.7-15.2t34.61,15.11a48.38,48.38,0,0,1,8.3,12.53,48.49,48.49,0,0,1,8.26-12.44q13.73-15.2,34.69-15.2t34.61,15.11a48.52,48.52,0,0,1-.71,65.74Z"/></svg>