<svg id="Layer_1" data-name="Layer 1" xmlns="http://www.w3.org/2000/svg" viewBox="0 0 500 500"><defs><style>.cls-1{fill:#fff;}</style></defs><title>SpacedWhite</title><path class="cls-1" d="M249,416.14c91.57,0,166.07-74.5,166.07-166.07S340.58,84,249,84,82.94,158.5,82.94,250.07,157.44,416.14,249,416.14ZM249,99c83.29,0,151.05,67.76,151.05,151.05S332.3,401.12,249,401.12,98,333.36,98,250.07,165.72,99,249,99Z"/><path class="cls-1" d="M157.13,264.68q0-23.5,2.16-31.22,2.82-10,8.22-14.83t11.22-4.77a16.2,16.2,0,0,1,6.14,1.58l6.06-9.8a21.18,21.18,0,0,0-10.3-3.08,22.12,22.12,0,0,0-12.29,3.86,41.71,41.71,0,0,0-11.21,11.67v-13.2H145.26v90.36h11.88Z"/><path class="cls-1" d="M194.3,283.42q13.19,14.16,34,14.16t33.9-14.16a50,50,0,0,0,9-13.25,50,50,0,0,0,9,13.25q13.18,14.16,34,14.16T348,283.42a48.52,48.52,0,0,0,.71-65.74Q335,202.56,314.14,202.56t-34.69,15.2a48.49,48.49,0,0,0-8.26,12.44,48.38,48.38,0,0,0-8.3-12.53q-13.72-15.11-34.61-15.11t-34.7,15.2a48.41,48.41,0,0,0,.71,65.66Zm94.88-58.76a33.54,33.54,0,0,1,24.92-10.72q14.42,0,24.88,10.72a35.73,35.73,0,0,1,10.46,25.91,36.78,36.78,0,0,1-4.75,18.27,33.69,33.69,0,0,1-12.84,13.08,36.5,36.5,0,0,1-35.51,0,33.69,33.69,0,0,1-12.84-13.08,36.74,36.74,0,0,1-4.75-18.27A35.8,35.8,0,0,1,289.18,224.66Zm-85.86,0a33.55,33.55,0,0,1,24.92-10.72q14.42,0,24.88,10.72a35.72,35.72,0,0,1,10.46,25.91,36.74,36.74,0,0,1-4.75,18.27A33.68,33.68,0,0,1,246,281.92a36.5,36.5,0,0,1-35.51,0,33.7,33.7,0,0,1-12.84-13.08,36.74,36.74,0,0,1-4.75-18.27A35.81,35.81,0,0,1,203.32,224.66Z"/></svg>