<svg id="Layer_1" data-name="Layer 1" xmlns="http://www.w3.org/2000/svg" viewBox="0 0 500 500"><title>SpacedBlack</title><path d="M249,84C157.44,84,82.94,158.5,82.94,250.07S157.44,416.14,249,416.14s166.07-74.5,166.07-166.07S340.58,84,249,84Zm0,317.13C165.72,401.12,98,333.36,98,250.07S165.72,99,249,99s151.05,67.76,151.05,151.05S332.3,401.12,249,401.12Z"/><path d="M190.93,205.64a21.18,21.18,0,0,0-10.3-3.08,22.12,22.12,0,0,0-12.29,3.86,41.71,41.71,0,0,0-11.21,11.67v-13.2H145.26v90.36h11.88V264.68q0-23.5,2.16-31.22,2.82-10,8.22-14.83t11.22-4.77a16.2,16.2,0,0,1,6.14,1.58Z"/><path d="M314.14,202.56q-21,0-34.69,15.2a48.5,48.5,0,0,0-8.26,12.44,48.38,48.38,0,0,0-8.3-12.53q-13.72-15.11-34.61-15.11t-34.7,15.2a48.41,48.41,0,0,0,.71,65.66q13.19,14.16,34,14.16t33.9-14.16a50,50,0,0,0,9-13.25,50,50,0,0,0,9,13.25q13.18,14.16,34,14.16T348,283.42a48.52,48.52,0,0,0,.71-65.74Q335,202.56,314.14,202.56Zm-55.31,66.28A33.68,33.68,0,0,1,246,281.92a36.5,36.5,0,0,1-35.51,0,33.7,33.7,0,0,1-12.84-13.08,36.74,36.74,0,0,1-4.75-18.27,35.81,35.81,0,0,1,10.42-25.91,33.55,33.55,0,0,1,24.92-10.71q14.42,0,24.88,10.71a35.72,35.72,0,0,1,10.46,25.91A36.74,36.74,0,0,1,258.83,268.84Zm85.86,0a33.69,33.69,0,0,1-12.84,13.08,36.5,36.5,0,0,1-35.51,0,33.69,33.69,0,0,1-12.84-13.08,36.74,36.74,0,0,1-4.75-18.27,35.8,35.8,0,0,1,10.42-25.91,33.54,33.54,0,0,1,24.92-10.71q14.42,0,24.88,10.71a35.73,35.73,0,0,1,10.46,25.91A36.78,36.78,0,0,1,344.69,268.84Z"/></svg>